#Comment line ignore any data following # character 
#Hierarchical Translation and Rotation (.htr) file 
[Header]	
#Header keywords are followed by a single value 
FileType HTR		#Single word string
DataType HTRS		#Translation followed by rotation and scale data
FileVersion 1		#integer
NumSegments 64		#integer
NumFrames 3		#integer
DataFrameRate 30		#integer, data frame rate in this file
EulerRotationOrder ZYX
CalibrationUnits mm
RotationUnits Degrees
GlobalAxisofGravity Y
BoneLengthAxis Y
ScaleFactor 1.00
[SegmentNames&Hierarchy]
#CHILD	PARENT
Pinger_Root GLOBAL
Pelvis Pinger_Root
L_Hip Pelvis
R_Hip Pelvis
Rear_Leg01 Pelvis
Spine1 Pelvis
L_Leg01 L_Hip
L_Leg02 L_Leg01
L_Leg03 L_Leg02
L_Foot L_Leg03
L_Toe1_01 L_Foot
L_Toe2_01 L_Foot
L_Toe3_01 L_Foot
planeAlignerLeft L_Foot
L_Toe1_02 L_Toe1_01
L_Toe1_03 L_Toe1_02
L_Toe2_02 L_Toe2_01
L_Toe2_03 L_Toe2_02
L_Toe3_02 L_Toe3_01
L_Toe3_03 L_Toe3_02
planeLockWeightLeft planeAlignerLeft
R_Leg01 R_Hip
R_Leg02 R_Leg01
R_Leg03 R_Leg02
R_Foot R_Leg03
planeAlignerRight R_Foot
R_Toe1_01 R_Foot
R_Toe2_01 R_Foot
R_Toe3_01 R_Foot
planeLockWeightRight planeAlignerRight
R_Toe1_02 R_Toe1_01
R_Toe1_03 R_Toe1_02
R_Toe2_02 R_Toe2_01
R_Toe2_03 R_Toe2_02
R_Toe3_02 R_Toe3_01
R_Toe3_03 R_Toe3_02
Rear_Leg02 Rear_Leg01
Rear_Leg03 Rear_Leg02
Rear_Leg04 Rear_Leg03
Rear_Foot Rear_Leg04
planeAlignerCenter Rear_Foot
Rear_Toe1_01 Rear_Foot
Rear_Toe2_01 Rear_Foot
Rear_Toe3_01 Rear_Foot
planeLockWeightCenter planeAlignerCenter
Rear_Toe1_02 Rear_Toe1_01
Rear_Toe1_03 Rear_Toe1_02
Rear_Toe2_02 Rear_Toe2_01
Rear_Toe2_03 Rear_Toe2_02
Rear_Toe3_02 Rear_Toe3_01
Rear_Toe3_03 Rear_Toe3_02
Back_Bone Spine1
Head Spine1
Motor_Bone Back_Bone
Ping_Mechanism Back_Bone
BN_LookIK Head
bottomMouth Head
L_Mouth01 Head
L_mouthFront Head
mouthGun Head
R_Mouth01 Head
R_mouthFront Head
TopMouth Head
weapon_bone Head
[BasePosition]
#SegmentName Tx, Ty, Tz, Rx, Ry, Rz, BoneLength
Pinger_Root 0.000000 0.000000 0.000000 -90.000000 0.000000 0.000000 10.000000 
Pelvis 0.000000 0.000000 0.000000 0.000000 0.000000 0.000000 10.000000 
L_Hip 0.000000 0.000000 0.000000 0.000000 0.000000 0.000000 10.000000 
R_Hip 0.000000 0.000000 0.000000 0.000000 0.000000 0.000000 10.000000 
Rear_Leg01 0.000000 0.000000 0.000000 0.000000 0.000000 0.000000 10.000000 
Spine1 0.000000 0.000000 0.000000 0.000000 0.000000 0.000000 10.000000 
L_Leg01 0.000000 0.000000 0.000000 0.000000 0.000000 0.000000 10.000000 
L_Leg02 0.000000 0.000000 0.000000 0.000000 0.000000 0.000000 10.000000 
L_Leg03 0.000000 0.000000 0.000000 0.000000 0.000000 0.000000 10.000000 
L_Foot 0.000000 0.000000 0.000000 0.000000 0.000000 0.000000 10.000000 
L_Toe1_01 0.000000 0.000000 0.000000 0.000000 0.000000 0.000000 10.000000 
L_Toe2_01 0.000000 0.000000 0.000000 0.000000 0.000000 0.000000 10.000000 
L_Toe3_01 0.000000 0.000000 0.000000 0.000000 0.000000 0.000000 10.000000 
planeAlignerLeft 0.000000 0.000000 0.000000 0.000000 0.000000 0.000000 10.000000 
L_Toe1_02 0.000000 0.000000 0.000000 0.000000 0.000000 0.000000 10.000000 
L_Toe1_03 0.000000 0.000000 0.000000 0.000000 0.000000 0.000000 10.000000 
L_Toe2_02 0.000000 0.000000 0.000000 0.000000 0.000000 0.000000 10.000000 
L_Toe2_03 0.000000 0.000000 0.000000 0.000000 0.000000 0.000000 10.000000 
L_Toe3_02 0.000000 0.000000 0.000000 0.000000 0.000000 0.000000 10.000000 
L_Toe3_03 0.000000 0.000000 0.000000 0.000000 0.000000 0.000000 10.000000 
planeLockWeightLeft 0.000000 0.000000 0.000000 0.000000 0.000000 0.000000 10.000000 
R_Leg01 0.000000 0.000000 0.000000 0.000000 0.000000 0.000000 10.000000 
R_Leg02 0.000000 0.000000 0.000000 0.000000 0.000000 0.000000 10.000000 
R_Leg03 0.000000 0.000000 0.000000 0.000000 0.000000 0.000000 10.000000 
R_Foot 0.000000 0.000000 0.000000 0.000000 0.000000 0.000000 10.000000 
planeAlignerRight 0.000000 0.000000 0.000000 0.000000 0.000000 0.000000 10.000000 
R_Toe1_01 0.000000 0.000000 0.000000 0.000000 0.000000 0.000000 10.000000 
R_Toe2_01 0.000000 0.000000 0.000000 0.000000 0.000000 0.000000 10.000000 
R_Toe3_01 0.000000 0.000000 0.000000 0.000000 0.000000 0.000000 10.000000 
planeLockWeightRight 0.000000 0.000000 0.000000 0.000000 0.000000 0.000000 10.000000 
R_Toe1_02 0.000000 0.000000 0.000000 0.000000 0.000000 0.000000 10.000000 
R_Toe1_03 0.000000 0.000000 0.000000 0.000000 0.000000 0.000000 10.000000 
R_Toe2_02 0.000000 0.000000 0.000000 0.000000 0.000000 0.000000 10.000000 
R_Toe2_03 0.000000 0.000000 0.000000 0.000000 0.000000 0.000000 10.000000 
R_Toe3_02 0.000000 0.000000 0.000000 0.000000 0.000000 0.000000 10.000000 
R_Toe3_03 0.000000 0.000000 0.000000 0.000000 0.000000 0.000000 10.000000 
Rear_Leg02 0.000000 0.000000 0.000000 0.000000 0.000000 0.000000 10.000000 
Rear_Leg03 0.000000 0.000000 0.000000 0.000000 0.000000 0.000000 10.000000 
Rear_Leg04 0.000000 0.000000 0.000000 0.000000 0.000000 0.000000 10.000000 
Rear_Foot 0.000000 0.000000 0.000000 0.000000 0.000000 0.000000 10.000000 
planeAlignerCenter 0.000000 0.000000 0.000000 0.000000 0.000000 0.000000 10.000000 
Rear_Toe1_01 0.000000 0.000000 0.000000 0.000000 0.000000 0.000000 10.000000 
Rear_Toe2_01 0.000000 0.000000 0.000000 0.000000 0.000000 0.000000 10.000000 
Rear_Toe3_01 0.000000 0.000000 0.000000 0.000000 0.000000 0.000000 10.000000 
planeLockWeightCenter 0.000000 0.000000 0.000000 0.000000 0.000000 0.000000 10.000000 
Rear_Toe1_02 0.000000 0.000000 0.000000 0.000000 0.000000 0.000000 10.000000 
Rear_Toe1_03 0.000000 0.000000 0.000000 0.000000 0.000000 0.000000 10.000000 
Rear_Toe2_02 0.000000 0.000000 0.000000 0.000000 0.000000 0.000000 10.000000 
Rear_Toe2_03 0.000000 0.000000 0.000000 0.000000 0.000000 0.000000 10.000000 
Rear_Toe3_02 0.000000 0.000000 0.000000 0.000000 0.000000 0.000000 10.000000 
Rear_Toe3_03 0.000000 0.000000 0.000000 0.000000 0.000000 0.000000 10.000000 
Back_Bone 0.000000 0.000000 0.000000 0.000000 0.000000 0.000000 10.000000 
Head 0.000000 0.000000 0.000000 0.000000 0.000000 0.000000 10.000000 
Motor_Bone 0.000000 0.000000 0.000000 0.000000 0.000000 0.000000 10.000000 
Ping_Mechanism 0.000000 0.000000 0.000000 0.000000 0.000000 0.000000 10.000000 
BN_LookIK 0.000000 0.000000 0.000000 0.000000 0.000000 0.000000 10.000000 
bottomMouth 0.000000 0.000000 0.000000 0.000000 0.000000 0.000000 10.000000 
L_Mouth01 0.000000 0.000000 0.000000 0.000000 0.000000 0.000000 10.000000 
L_mouthFront 0.000000 0.000000 0.000000 0.000000 0.000000 0.000000 10.000000 
mouthGun 0.000000 0.000000 0.000000 0.000000 0.000000 0.000000 10.000000 
R_Mouth01 0.000000 0.000000 0.000000 0.000000 0.000000 0.000000 10.000000 
R_mouthFront 0.000000 0.000000 0.000000 0.000000 0.000000 0.000000 10.000000 
TopMouth 0.000000 0.000000 0.000000 0.000000 0.000000 0.000000 10.000000 
weapon_bone 0.000000 0.000000 0.000000 0.000000 0.000000 0.000000 10.000000 
#Beginning of Data. Separated by tabs
#Fr	Tx	Ty	Tz	Rx	Ry	Rz	SF
[Pinger_Root]
6 -0.000003 400.874603 0.000000 -0.000075 -0.000000 -0.000020 400.874603
7 -0.000004 489.446198 0.000000 -0.000075 -0.000000 -0.000020 489.446198
8 -0.000005 580.000122 0.000000 -0.000075 -0.000000 -0.000020 580.000122
[Pelvis]
6 -144.954163 1142.366211 5049.969238 101.875732 -82.712151 -110.099045 5179.594727
7 -193.091034 1117.916382 5044.400391 94.095779 -79.449989 -101.953629 5170.395996
8 -238.957382 1096.392334 5036.031250 88.876625 -76.716515 -96.313011 5159.533691
[L_Hip]
6 5.766392 125.831482 872.656799 -178.253311 -81.787712 87.381248 881.701050
7 5.766392 125.831482 872.656799 -178.253311 -81.787758 87.381340 881.701050
8 5.766392 125.831482 872.656799 -178.253311 -81.787758 87.381340 881.701050
[R_Hip]
6 5.765438 125.836372 -872.654907 -1.746713 81.787666 87.381149 881.699829
7 5.765438 125.836372 -872.654907 -1.746690 81.787712 87.381248 881.699829
8 5.765438 125.836372 -872.654907 -1.746690 81.787712 87.381248 881.699829
[Rear_Leg01]
6 -192.298416 -925.602966 -0.001907 162.295929 13.195524 -152.248856 945.367432
7 -192.298416 -925.602966 -0.001907 155.169205 14.376682 -155.583740 945.367432
8 -192.298416 -925.602966 -0.001907 159.691193 14.345781 -152.711044 945.367432
[Spine1]
6 290.604584 5.007505 0.000477 10.475039 -3.216122 37.181889 290.647736
7 290.604584 5.007505 0.000477 10.124310 -3.777674 40.962585 290.647736
8 290.604584 5.007505 0.000477 9.457599 -4.485782 44.121037 290.647736
[L_Leg01]
6 761.932007 -0.002384 -0.069261 67.195610 -12.369305 -69.127144 761.932068
7 761.932007 -0.002384 -0.069261 68.443222 -9.472187 -71.341454 761.932068
8 761.932007 -0.002384 -0.069261 69.394699 -6.170048 -73.998383 761.932068
[L_Leg02]
6 1441.140503 -0.000954 -0.000715 -1.316380 0.593486 -109.614151 1441.140503
7 1441.140503 -0.000954 -0.000715 -1.329066 0.619761 -109.275024 1441.140503
8 1441.140503 -0.000954 -0.000715 -1.352057 0.635737 -107.944778 1441.140503
[L_Leg03]
6 1686.963989 -0.000715 -0.000954 0.047040 -0.013531 97.333504 1686.963989
7 1686.963989 -0.000715 -0.000954 0.054151 -0.013474 96.275330 1686.963989
8 1686.963989 -0.000715 -0.000954 0.054217 -0.013206 95.708359 1686.963989
[L_Foot]
6 3041.570068 -30.715107 11.297464 -13.110224 16.751078 71.496956 3041.746094
7 3041.570068 -30.715107 11.297464 -12.415767 16.870579 72.588188 3041.746094
8 3041.570068 -30.715107 11.297464 -11.772540 16.967299 73.218269 3041.746094
[L_Toe1_01]
6 -188.216690 -224.732346 -21.137953 89.555046 -2.786668 -164.548828 293.899567
7 -188.216690 -224.732346 -21.137953 89.500862 -2.550153 -164.259903 293.899567
8 -188.216690 -224.732346 -21.137953 89.447891 -2.313375 -163.971268 293.899567
[L_Toe2_01]
6 200.746536 -219.926590 148.838394 -77.616852 -14.031177 -44.462635 332.896027
7 200.746536 -219.926590 148.838394 -77.661362 -13.890563 -44.431591 332.896027
8 200.746536 -219.926590 148.838394 -77.705780 -13.749933 -44.400677 332.896027
[L_Toe3_01]
6 188.832520 -219.859131 -191.078659 -105.425446 15.315402 -45.597870 347.140900
7 188.832520 -219.859131 -191.078659 -105.557816 15.697233 -45.768761 347.140900
8 188.832520 -219.859131 -191.078659 -105.691635 16.078686 -45.940907 347.140900
[planeAlignerLeft]
6 -21.942432 -612.990417 17.490723 0.000000 -89.972023 -90.014915 613.632324
7 -28.007694 -614.272705 12.960020 0.000000 -90.000000 -90.017578 615.047424
8 -34.072952 -615.555054 8.429320 0.000000 -89.960434 -90.020218 616.554993
[L_Toe1_02]
6 413.761139 0.000477 0.000000 0.001409 -22.851999 0.001409 413.761139
7 413.761139 0.000477 0.000000 0.001407 -23.072332 0.001407 413.761139
8 413.761139 0.000477 0.000000 0.001405 -23.292667 0.001405 413.761139
[L_Toe1_03]
6 464.317322 0.000358 -0.000089 0.012582 79.294998 0.012582 464.317322
7 464.317322 0.000358 -0.000089 0.011608 78.394966 0.011608 464.317322
8 464.317322 0.000358 -0.000089 0.010614 77.300545 0.010614 464.317322
[L_Toe2_02]
6 342.235809 -0.000477 0.000238 0.001180 -77.946869 0.001180 342.235809
7 342.235809 -0.000477 0.000238 0.001180 -78.108490 0.001180 342.235809
8 342.235809 -0.000477 0.000238 0.001180 -78.270103 0.001180 342.235809
[L_Toe2_03]
6 420.210846 -0.000715 0.000000 -179.997040 76.000107 -179.993515 420.210846
7 420.210846 -0.000715 0.000000 -179.997360 75.021172 -179.993835 420.210846
8 420.210846 -0.000715 0.000000 -179.997635 74.042152 -179.994095 420.210846
[L_Toe3_02]
6 329.270111 0.000954 0.000000 0.001177 -81.869431 0.001177 329.270111
7 329.270111 0.000954 0.000000 0.001177 -81.923790 0.001177 329.270111
8 329.270111 0.000954 0.000000 0.001176 -81.978065 0.001176 329.270111
[L_Toe3_03]
6 439.137451 -0.001907 0.000954 -179.998016 72.387741 -179.994476 439.137451
7 439.137451 -0.001907 0.000954 -179.998093 71.988327 -179.994553 439.137451
8 439.137451 -0.001907 0.000954 -179.998184 71.588951 -179.994644 439.137451
[planeLockWeightLeft]
6 1000.000122 -0.000266 -0.000339 -0.011826 -0.004376 0.005620 1000.000122
7 1000.000122 -0.000273 -0.000332 -0.011826 -0.004376 0.005620 1000.000122
8 1000.000122 -0.000280 -0.000326 -0.011826 -0.004376 0.005620 1000.000122
[R_Leg01]
6 761.455627 -0.001907 -0.000358 89.590141 13.326580 79.308495 761.455688
7 761.455627 -0.001907 -0.000358 88.495155 19.653416 78.204887 761.455688
8 761.455627 -0.001907 -0.000358 87.323532 24.905344 76.608452 761.455688
[R_Leg02]
6 1441.140625 0.000000 -0.000238 0.207671 0.012808 -82.241348 1441.140625
7 1441.140625 0.000000 -0.000238 0.209080 0.022870 -80.105225 1441.140625
8 1441.140625 0.000000 -0.000238 0.213846 0.030478 -78.742256 1441.140625
[R_Leg03]
6 1686.963989 0.000954 0.001431 -0.071051 0.013099 90.445671 1686.963989
7 1686.963989 0.000954 0.001431 -0.067426 0.012648 91.681427 1686.963989
8 1686.963989 0.000954 0.001431 -0.063812 0.012118 92.917038 1686.963989
[R_Foot]
6 3041.560059 -30.531288 -11.204481 14.795673 -23.105797 81.607742 3041.734131
7 3041.560059 -30.531288 -11.204481 15.445621 -23.504431 80.584740 3041.734131
8 3041.560059 -30.531288 -11.204481 16.081772 -24.024771 80.195526 3041.734131
[planeAlignerRight]
6 -102.941124 -632.712891 52.619629 0.000000 -89.951546 -90.014481 643.188416
7 -132.616425 -664.222595 66.527107 0.000000 -89.972023 -90.016403 680.591431
8 -157.876450 -693.366028 76.976616 0.000000 -89.960434 -90.018311 715.266968
[R_Toe1_01]
6 -188.383347 -224.864899 21.052242 90.909958 -0.771568 -159.190063 294.101532
7 -188.383347 -224.864899 21.052242 90.883926 -1.447365 -154.885910 294.101532
8 -188.383347 -224.864899 21.052242 90.805824 -1.931423 -151.008484 294.101532
[R_Toe2_01]
6 200.637817 -220.002121 -148.787384 -101.838432 11.271854 -44.289684 332.857574
7 200.637817 -220.002121 -148.787384 -102.371834 10.476538 -46.853737 332.857574
8 200.637817 -220.002121 -148.787384 -102.867287 9.658642 -49.403770 332.857574
[R_Toe3_01]
6 188.606735 -220.092957 191.126343 -72.473946 -20.801365 -48.672176 347.192566
7 188.606735 -220.092957 191.126343 -71.383728 -21.327766 -51.782608 347.192566
8 188.606735 -220.092957 191.126343 -70.260612 -21.797991 -54.913971 347.192566
[planeLockWeightRight]
6 999.999573 0.000153 -0.000196 -0.011823 -0.004379 -0.000027 999.999573
7 999.999512 0.000153 -0.000200 -0.011823 -0.004379 -0.000027 999.999512
8 999.999390 0.000153 -0.000205 -0.011823 -0.004379 -0.000027 999.999390
[R_Toe1_02]
6 413.762085 0.000477 -0.000119 0.001388 -25.434610 0.001388 413.762085
7 413.762085 0.000477 -0.000119 0.001384 -26.007854 0.001384 413.762085
8 413.762085 0.000477 -0.000119 0.001390 -25.236916 0.001390 413.762085
[R_Toe1_03]
6 464.317810 0.000000 0.001088 0.005162 63.715065 0.005162 464.317810
7 464.317810 0.000000 0.001088 0.003763 53.658188 0.003763 464.317810
8 464.317810 0.000000 0.001088 0.002906 42.365475 0.002906 464.317810
[R_Toe2_02]
6 342.234741 -0.000954 0.000238 -0.002333 -79.686279 -0.002333 342.234741
7 342.234741 -0.000954 0.000238 -0.002332 -79.956543 -0.002332 342.234741
8 342.234741 -0.000954 0.000238 -0.002332 -79.974838 -0.002332 342.234741
[R_Toe2_03]
6 420.210846 0.000715 -0.000268 -179.995636 64.163956 -179.999222 420.210846
7 420.210846 0.000715 -0.000268 -179.995728 63.127907 -179.999329 420.210846
8 420.210846 0.000715 -0.000268 -179.995743 62.970608 -179.999344 420.210846
[R_Toe3_02]
6 329.270355 -0.000477 -0.000954 0.001176 -82.491020 0.001176 329.270355
7 329.270355 -0.000477 -0.000954 0.001176 -82.576431 0.001176 329.270355
8 329.270355 -0.000477 -0.000954 0.001176 -82.555420 0.001176 329.270355
[R_Toe3_03]
6 439.137939 0.000238 0.001431 -179.998734 68.213898 -179.995178 439.137939
7 439.137939 0.000238 0.001431 -179.998672 68.760117 -179.995102 439.137939
8 439.137939 0.000238 0.001431 -179.998566 69.306335 -179.995026 439.137939
[Rear_Leg02]
6 1162.777710 -0.029802 0.005960 25.835712 -7.229702 -122.157761 1162.777710
7 1162.777710 -0.029802 0.005960 22.260365 -11.776949 -115.795311 1162.777710
8 1162.777710 -0.029802 0.005960 20.242916 -11.503455 -119.687622 1162.777710
[Rear_Leg03]
6 607.192505 -0.013351 -0.073195 0.009888 -0.006195 80.484726 607.192505
7 607.192505 -0.013351 -0.073195 0.009983 -0.006041 78.714439 607.192505
8 607.192505 -0.013351 -0.073195 0.009997 -0.006017 78.439667 607.192505
[Rear_Leg04]
6 995.874512 -0.020504 -0.011921 -0.042068 -0.015500 105.365273 995.874573
7 995.874512 -0.020504 -0.011921 -0.043998 -0.015128 96.208931 995.874573
8 995.874512 -0.020504 -0.011921 -0.043835 -0.015596 94.987183 995.874573
[Rear_Foot]
6 3096.176270 -0.067472 -0.041425 -68.187996 61.093987 86.149513 3096.176270
7 3096.176270 -0.067472 -0.041425 -63.711105 62.281872 84.098808 3096.176270
8 3096.176270 -0.067472 -0.041425 -60.133068 63.828903 83.802925 3096.176270
[planeAlignerCenter]
6 3.330340 298.042023 -757.741577 0.001660 -0.001660 179.998337 814.255737
7 2.246372 313.760468 -758.462036 0.001660 -0.001660 179.998352 820.801636
8 25.447706 -124.211029 -930.243164 0.001492 -0.001812 -168.935806 938.844177
[Rear_Toe1_01]
6 0.653352 83.966492 -371.173737 0.090739 39.770897 90.043488 380.553192
7 0.653352 83.966492 -371.173737 0.088556 39.895462 90.042351 380.553192
8 0.653352 83.966492 -371.173737 0.707664 33.449337 102.139290 380.553192
[Rear_Toe2_01]
6 178.200760 -294.826019 -362.060547 32.049374 78.204613 -37.405987 499.765686
7 178.200760 -294.826019 -362.060547 25.539021 76.080338 -43.632618 499.765686
8 178.200760 -294.826019 -362.060547 1.054347 51.297646 -58.902527 499.765686
[Rear_Toe3_01]
6 -153.359680 -308.780914 -362.060852 -34.853607 77.661736 -147.749969 499.952881
7 -153.359680 -308.780914 -362.060852 -28.067286 75.645874 -141.280487 499.952881
8 -153.359680 -308.780914 -362.060852 4.163107 48.791691 -91.730263 499.952881
[planeLockWeightCenter]
6 648.000305 0.000305 -0.000076 -0.011814 -0.004373 -0.000015 648.000305
7 896.000366 0.000381 -0.000153 -0.011814 -0.004373 -0.000015 896.000366
8 1000.000244 0.000381 -0.000124 -0.011814 -0.004373 -0.000015 1000.000244
[Rear_Toe1_02]
6 379.707825 0.194073 0.000477 -0.002640 -33.254955 -0.002640 379.707855
7 379.707825 0.194073 0.000477 -0.002638 -33.454315 -0.002638 379.707855
8 379.707825 0.194073 0.000477 -0.002642 -33.149757 -0.002642 379.707855
[Rear_Toe1_03]
6 500.129700 0.165701 0.000119 0.016480 81.832565 0.016480 500.129761
7 500.129700 0.165701 0.000119 0.014355 80.620804 0.014355 500.129761
8 500.129700 0.165701 0.000119 -0.013238 85.604439 -0.016737 500.129761
[Rear_Toe2_02]
6 340.494507 0.000238 -0.000954 179.998825 -89.371307 179.998825 340.494507
7 340.494507 0.000238 -0.000954 0.001174 -89.246971 0.001174 340.494507
8 340.494507 0.000238 -0.000954 0.001254 -48.854500 0.001254 340.494507
[Rear_Toe2_03]
6 433.103577 0.000000 0.000238 -179.995636 64.198975 -179.999222 433.103546
7 433.103577 0.000000 0.000238 -179.995056 69.064262 -179.998611 433.103546
8 433.103577 0.000000 0.000238 -0.003350 43.098366 0.000462 433.103546
[Rear_Toe3_02]
6 340.494141 -0.000358 -0.000477 0.000000 -89.517456 0.004646 340.494171
7 340.494141 -0.000358 -0.000477 0.001174 -89.059128 0.001174 340.494171
8 340.494141 -0.000358 -0.000477 -0.002535 -42.829052 -0.002535 340.494171
[Rear_Toe3_03]
6 433.103577 0.001431 -0.000238 -179.999161 64.754471 -179.995575 433.103546
7 433.103577 0.001431 -0.000238 -179.998520 69.689789 -179.994965 433.103546
8 433.103577 0.001431 -0.000238 0.000672 36.793476 -0.003239 433.103546
[Back_Bone]
6 1312.175781 -701.934692 0.000954 -3.274529 -1.631327 -83.908981 1488.125488
7 1312.175781 -701.934692 0.000954 -3.206084 -2.430949 -83.410004 1488.125488
8 1312.175781 -701.934692 0.000954 -2.959318 -2.899582 -82.784332 1488.125488
[Head]
6 1406.159424 809.709290 0.001431 -3.107840 1.919443 1.159057 1622.625488
7 1406.159424 809.709290 0.001431 -3.501349 1.738284 0.701751 1622.625488
8 1406.159424 809.709290 0.001431 -3.893328 1.554011 0.245782 1622.625488
[Motor_Bone]
6 1158.364380 -417.834747 0.000477 1.114805 -1.132542 -107.122055 1231.419434
7 1158.364380 -417.834747 0.000477 -1.034497 -1.094875 -107.077385 1231.419434
8 1158.364380 -417.834747 0.000477 -2.188165 -1.022762 -107.007042 1231.419434
[Ping_Mechanism]
6 1188.505493 -410.726318 -11.279259 0.000103 -0.000053 82.120995 1257.524902
7 1176.243896 -398.031281 -9.125555 0.000103 -0.000053 82.120995 1241.797852
8 1167.127930 -386.638153 -5.070416 0.000103 -0.000053 82.120995 1229.513062
[BN_LookIK]
6 193.241119 1380.371704 -0.002861 0.000000 89.965736 -31.038179 1393.832153
7 193.241119 1380.371704 -0.002861 0.000000 89.965736 -31.038179 1393.832153
8 193.241119 1380.371704 -0.002861 0.000000 89.965736 -31.038179 1393.832153
[bottomMouth]
6 -435.092926 615.759399 -0.000954 -0.000022 0.000016 73.527184 753.966492
7 -435.092926 615.759399 -0.000954 -0.000022 0.000016 73.527184 753.966492
8 -435.092926 615.759399 -0.000954 -0.000022 0.000016 73.527184 753.966492
[L_Mouth01]
6 554.440979 7.658243 838.222046 150.204178 23.759130 109.605339 1005.027161
7 554.440979 7.658243 838.222046 150.204178 23.759130 109.605339 1005.027161
8 554.440979 7.658243 838.222046 150.204178 23.759130 109.605339 1005.027161
[L_mouthFront]
6 551.629089 934.514771 339.150421 0.000081 2.804060 79.119301 1136.941284
7 551.629089 934.514771 339.150421 0.000081 2.804060 79.119301 1136.941284
8 551.629089 934.514771 339.150421 0.000081 2.804060 79.119301 1136.941284
[mouthGun]
6 55.332661 1627.420898 0.000000 0.000023 0.000009 -11.038128 1628.361328
7 55.332661 1627.420898 0.000000 0.000023 0.000009 -11.038128 1628.361328
8 55.332661 1627.420898 0.000000 0.000023 0.000009 -11.038128 1628.361328
[R_Mouth01]
6 554.442383 7.659197 -838.223938 29.795891 -23.759109 109.605331 1005.029541
7 554.442383 7.659197 -838.223938 29.795891 -23.759109 109.605331 1005.029541
8 554.442383 7.659197 -838.223938 29.795891 -23.759109 109.605331 1005.029541
[R_mouthFront]
6 551.629089 934.514282 -339.151367 0.000029 -2.803930 79.119133 1136.941162
7 551.629089 934.514282 -339.151367 0.000029 -2.803930 79.119133 1136.941162
8 551.629089 934.514282 -339.151367 0.000029 -2.803930 79.119133 1136.941162
[TopMouth]
6 461.269867 -56.106091 -0.008583 -0.000059 -0.000268 92.025169 464.669525
7 461.269867 -56.106091 -0.008583 -0.000059 -0.000268 92.025169 464.669525
8 461.269867 -56.106091 -0.008583 -0.000059 -0.000268 92.025169 464.669525
[weapon_bone]
6 -987.239868 1448.372803 0.001431 0.000000 89.965736 -31.038221 1752.833740
7 -987.239868 1448.372803 0.001431 0.000000 89.965736 -31.038221 1752.833740
8 -987.239868 1448.372803 0.001431 0.000000 89.965736 -31.038221 1752.833740
